<mxfile host="app.diagrams.net" agent="Mozilla/5.0 (X11; Ubuntu; Linux x86_64; rv:131.0) Gecko/20100101 Firefox/131.0" version="24.8.3">
  <diagram name="Page-1" id="5Wb0-40RqOYCl0tmLYHv">
    <mxGraphModel dx="1362" dy="795" grid="1" gridSize="10" guides="1" tooltips="1" connect="1" arrows="1" fold="1" page="1" pageScale="1" pageWidth="850" pageHeight="1100" math="0" shadow="0">
      <root>
        <mxCell id="0" />
        <mxCell id="1" parent="0" />
        <mxCell id="oworq0zyb9b8xem2JOyv-4" value="" style="edgeStyle=orthogonalEdgeStyle;rounded=0;orthogonalLoop=1;jettySize=auto;html=1;" edge="1" parent="1" source="oworq0zyb9b8xem2JOyv-2" target="oworq0zyb9b8xem2JOyv-3">
          <mxGeometry relative="1" as="geometry" />
        </mxCell>
        <mxCell id="oworq0zyb9b8xem2JOyv-2" value="&lt;div&gt;&lt;b&gt;User Interface &lt;br&gt;&lt;/b&gt;&lt;/div&gt;&lt;div&gt;&lt;b&gt;Tkinter GUI&lt;br&gt;&lt;/b&gt;&lt;/div&gt;" style="rounded=0;whiteSpace=wrap;html=1;" vertex="1" parent="1">
          <mxGeometry x="60" y="350" width="120" height="60" as="geometry" />
        </mxCell>
        <mxCell id="oworq0zyb9b8xem2JOyv-6" value="" style="edgeStyle=orthogonalEdgeStyle;rounded=0;orthogonalLoop=1;jettySize=auto;html=1;" edge="1" parent="1" source="oworq0zyb9b8xem2JOyv-3" target="oworq0zyb9b8xem2JOyv-5">
          <mxGeometry relative="1" as="geometry" />
        </mxCell>
        <mxCell id="oworq0zyb9b8xem2JOyv-3" value="&lt;b&gt;Front-end Logic&lt;/b&gt;" style="whiteSpace=wrap;html=1;rounded=0;" vertex="1" parent="1">
          <mxGeometry x="320" y="350" width="130" height="60" as="geometry" />
        </mxCell>
        <mxCell id="oworq0zyb9b8xem2JOyv-8" value="" style="edgeStyle=orthogonalEdgeStyle;rounded=0;orthogonalLoop=1;jettySize=auto;html=1;" edge="1" parent="1" source="oworq0zyb9b8xem2JOyv-5" target="oworq0zyb9b8xem2JOyv-7">
          <mxGeometry relative="1" as="geometry" />
        </mxCell>
        <mxCell id="oworq0zyb9b8xem2JOyv-5" value="&lt;b&gt;Back-end Logic&lt;/b&gt;" style="whiteSpace=wrap;html=1;rounded=0;" vertex="1" parent="1">
          <mxGeometry x="590" y="350" width="130" height="60" as="geometry" />
        </mxCell>
        <mxCell id="oworq0zyb9b8xem2JOyv-9" style="edgeStyle=orthogonalEdgeStyle;rounded=0;orthogonalLoop=1;jettySize=auto;html=1;entryX=0.5;entryY=1;entryDx=0;entryDy=0;" edge="1" parent="1" source="oworq0zyb9b8xem2JOyv-7" target="oworq0zyb9b8xem2JOyv-3">
          <mxGeometry relative="1" as="geometry" />
        </mxCell>
        <mxCell id="oworq0zyb9b8xem2JOyv-7" value="&lt;b&gt;Data Handeling&lt;/b&gt;" style="whiteSpace=wrap;html=1;rounded=0;" vertex="1" parent="1">
          <mxGeometry x="480" y="520" width="120" height="60" as="geometry" />
        </mxCell>
      </root>
    </mxGraphModel>
  </diagram>
</mxfile>
